<mxfile host="app.diagrams.net" modified="2023-09-17T15:09:04.459Z" agent="Mozilla/5.0 (Windows NT 10.0; Win64; x64) AppleWebKit/537.36 (KHTML, like Gecko) Chrome/116.0.0.0 Safari/537.36" etag="jLf11ljimoXonnvXhX7l" version="21.7.4" type="github">
  <diagram name="Page-1" id="VorCHwKnx_5yeoos93pm">
    <mxGraphModel dx="1050" dy="534" grid="1" gridSize="10" guides="1" tooltips="1" connect="1" arrows="1" fold="1" page="1" pageScale="1" pageWidth="850" pageHeight="1100" math="0" shadow="0">
      <root>
        <mxCell id="0" />
        <mxCell id="1" parent="0" />
        <mxCell id="laG2z9fHLPgn7JEHO_wT-5" value="" style="edgeStyle=orthogonalEdgeStyle;rounded=0;orthogonalLoop=1;jettySize=auto;html=1;" edge="1" parent="1" source="laG2z9fHLPgn7JEHO_wT-1" target="laG2z9fHLPgn7JEHO_wT-4">
          <mxGeometry relative="1" as="geometry" />
        </mxCell>
        <mxCell id="laG2z9fHLPgn7JEHO_wT-1" value="Mulai" style="ellipse;whiteSpace=wrap;html=1;" vertex="1" parent="1">
          <mxGeometry x="320" y="60" width="180" height="80" as="geometry" />
        </mxCell>
        <mxCell id="laG2z9fHLPgn7JEHO_wT-7" value="" style="edgeStyle=orthogonalEdgeStyle;rounded=0;orthogonalLoop=1;jettySize=auto;html=1;" edge="1" parent="1" source="laG2z9fHLPgn7JEHO_wT-4" target="laG2z9fHLPgn7JEHO_wT-6">
          <mxGeometry relative="1" as="geometry" />
        </mxCell>
        <mxCell id="laG2z9fHLPgn7JEHO_wT-4" value="input (N)" style="shape=parallelogram;perimeter=parallelogramPerimeter;whiteSpace=wrap;html=1;fixedSize=1;" vertex="1" parent="1">
          <mxGeometry x="350" y="230" width="120" height="60" as="geometry" />
        </mxCell>
        <mxCell id="laG2z9fHLPgn7JEHO_wT-9" value="" style="rounded=0;orthogonalLoop=1;jettySize=auto;html=1;" edge="1" parent="1" source="laG2z9fHLPgn7JEHO_wT-6" target="laG2z9fHLPgn7JEHO_wT-8">
          <mxGeometry relative="1" as="geometry" />
        </mxCell>
        <mxCell id="laG2z9fHLPgn7JEHO_wT-6" value="BK = N % 2" style="shape=hexagon;perimeter=hexagonPerimeter2;whiteSpace=wrap;html=1;fixedSize=1;" vertex="1" parent="1">
          <mxGeometry x="350" y="360" width="120" height="80" as="geometry" />
        </mxCell>
        <mxCell id="laG2z9fHLPgn7JEHO_wT-11" value="" style="edgeStyle=orthogonalEdgeStyle;rounded=0;orthogonalLoop=1;jettySize=auto;html=1;" edge="1" parent="1" source="laG2z9fHLPgn7JEHO_wT-8" target="laG2z9fHLPgn7JEHO_wT-10">
          <mxGeometry relative="1" as="geometry" />
        </mxCell>
        <mxCell id="laG2z9fHLPgn7JEHO_wT-12" value="True" style="edgeLabel;html=1;align=center;verticalAlign=middle;resizable=0;points=[];" vertex="1" connectable="0" parent="laG2z9fHLPgn7JEHO_wT-11">
          <mxGeometry x="0.0071" y="1" relative="1" as="geometry">
            <mxPoint as="offset" />
          </mxGeometry>
        </mxCell>
        <mxCell id="laG2z9fHLPgn7JEHO_wT-14" value="" style="edgeStyle=orthogonalEdgeStyle;rounded=0;orthogonalLoop=1;jettySize=auto;html=1;" edge="1" parent="1" source="laG2z9fHLPgn7JEHO_wT-8" target="laG2z9fHLPgn7JEHO_wT-13">
          <mxGeometry relative="1" as="geometry" />
        </mxCell>
        <mxCell id="laG2z9fHLPgn7JEHO_wT-15" value="false" style="edgeLabel;html=1;align=center;verticalAlign=middle;resizable=0;points=[];" vertex="1" connectable="0" parent="laG2z9fHLPgn7JEHO_wT-14">
          <mxGeometry x="-0.2894" y="-1" relative="1" as="geometry">
            <mxPoint as="offset" />
          </mxGeometry>
        </mxCell>
        <mxCell id="laG2z9fHLPgn7JEHO_wT-8" value="BK == 1" style="rhombus;whiteSpace=wrap;html=1;" vertex="1" parent="1">
          <mxGeometry x="355" y="530" width="110" height="80" as="geometry" />
        </mxCell>
        <mxCell id="laG2z9fHLPgn7JEHO_wT-18" style="edgeStyle=orthogonalEdgeStyle;rounded=0;orthogonalLoop=1;jettySize=auto;html=1;" edge="1" parent="1" source="laG2z9fHLPgn7JEHO_wT-10" target="laG2z9fHLPgn7JEHO_wT-16">
          <mxGeometry relative="1" as="geometry">
            <Array as="points">
              <mxPoint x="600" y="680" />
              <mxPoint x="420" y="680" />
            </Array>
          </mxGeometry>
        </mxCell>
        <mxCell id="laG2z9fHLPgn7JEHO_wT-10" value="output = YA" style="shape=parallelogram;perimeter=parallelogramPerimeter;whiteSpace=wrap;html=1;fixedSize=1;" vertex="1" parent="1">
          <mxGeometry x="540" y="540" width="120" height="60" as="geometry" />
        </mxCell>
        <mxCell id="laG2z9fHLPgn7JEHO_wT-17" value="" style="rounded=0;orthogonalLoop=1;jettySize=auto;html=1;edgeStyle=orthogonalEdgeStyle;" edge="1" parent="1" source="laG2z9fHLPgn7JEHO_wT-13" target="laG2z9fHLPgn7JEHO_wT-16">
          <mxGeometry relative="1" as="geometry">
            <Array as="points">
              <mxPoint x="220" y="680" />
              <mxPoint x="420" y="680" />
            </Array>
          </mxGeometry>
        </mxCell>
        <mxCell id="laG2z9fHLPgn7JEHO_wT-13" value="output = TIDAK" style="shape=parallelogram;perimeter=parallelogramPerimeter;whiteSpace=wrap;html=1;fixedSize=1;" vertex="1" parent="1">
          <mxGeometry x="160" y="540" width="120" height="60" as="geometry" />
        </mxCell>
        <mxCell id="laG2z9fHLPgn7JEHO_wT-16" value="selesai" style="ellipse;whiteSpace=wrap;html=1;" vertex="1" parent="1">
          <mxGeometry x="380" y="700" width="80" height="80" as="geometry" />
        </mxCell>
      </root>
    </mxGraphModel>
  </diagram>
</mxfile>
